<?xml version="1.0" encoding="UTF-8" standalone="no"?>
<svg width="1890px" height="473px" viewBox="0 0 1890 473" version="1.1" xmlns="http://www.w3.org/2000/svg" xmlns:xlink="http://www.w3.org/1999/xlink">
    <!-- Generator: Sketch 3.6.1 (26313) - http://www.bohemiancoding.com/sketch -->
    <title>web</title>
    <desc>Created with Sketch.</desc>
    <defs></defs>
    <g id="Page-1" stroke="none" stroke-width="1" fill="none" fill-rule="evenodd" stroke-opacity="0.25">
        <g id="Artboard-1" transform="translate(-749.000000, -1339.000000)" stroke="#FFFFFF" stroke-width="7">
            <g id="web" transform="translate(750.000000, 1334.000000)">
                <g id="Group">
                    <polygon id="Polygon-1" transform="translate(58.039748, 150.067952) rotate(-273.000000) translate(-58.039748, -150.067952) " points="58.0397482 95.0679522 105.671145 122.567952 105.671145 177.567952 58.0397482 205.067952 10.408351 177.567952 10.408351 122.567952 "></polygon>
                    <polygon id="Polygon-1" transform="translate(167.888997, 144.310997) rotate(-273.000000) translate(-167.888997, -144.310997) " points="167.888997 89.310997 215.520394 116.810997 215.520394 171.810997 167.888997 199.310997 120.2576 171.810997 120.2576 116.810997 "></polygon>
                    <polygon id="Polygon-1" transform="translate(277.738246, 138.554042) rotate(-273.000000) translate(-277.738246, -138.554042) " points="277.738246 83.5540418 325.369643 111.054042 325.369643 166.054042 277.738246 193.554042 230.106849 166.054042 230.106849 111.054042 "></polygon>
                    <polygon id="Polygon-1" transform="translate(387.587495, 132.797087) rotate(-273.000000) translate(-387.587495, -132.797087) " points="387.587495 77.7970867 435.218892 105.297087 435.218892 160.297087 387.587495 187.797087 339.956097 160.297087 339.956097 105.297087 "></polygon>
                    <polygon id="Polygon-1" transform="translate(497.436744, 127.040131) rotate(-273.000000) translate(-497.436744, -127.040131) " points="497.436744 72.0401315 545.068141 99.5401315 545.068141 154.540131 497.436744 182.040131 449.805346 154.540131 449.805346 99.5401315 "></polygon>
                    <polygon id="Polygon-1" transform="translate(607.285992, 121.283176) rotate(-273.000000) translate(-607.285992, -121.283176) " points="607.285992 66.2831763 654.91739 93.7831763 654.91739 148.783176 607.285992 176.283176 559.654595 148.783176 559.654595 93.7831763 "></polygon>
                    <polygon id="Polygon-1" transform="translate(717.135241, 115.526221) rotate(-273.000000) translate(-717.135241, -115.526221) " points="717.135241 60.5262211 764.766638 88.0262211 764.766638 143.026221 717.135241 170.526221 669.503844 143.026221 669.503844 88.0262211 "></polygon>
                    <polygon id="Polygon-1" transform="translate(826.984490, 109.769266) rotate(-273.000000) translate(-826.984490, -109.769266) " points="826.98449 54.7692659 874.615887 82.2692659 874.615887 137.269266 826.98449 164.769266 779.353093 137.269266 779.353093 82.2692659 "></polygon>
                    <polygon id="Polygon-1" transform="translate(936.833739, 104.012311) rotate(-273.000000) translate(-936.833739, -104.012311) " points="936.833739 49.0123107 984.465136 76.5123107 984.465136 131.512311 936.833739 159.012311 889.202342 131.512311 889.202342 76.5123107 "></polygon>
                    <polygon id="Polygon-1" transform="translate(1046.682988, 98.255356) rotate(-273.000000) translate(-1046.682988, -98.255356) " points="1046.68299 43.2553555 1094.31438 70.7553555 1094.31438 125.755356 1046.68299 153.255356 999.05159 125.755356 999.05159 70.7553555 "></polygon>
                    <polygon id="Polygon-1" transform="translate(1156.532236, 92.498400) rotate(-273.000000) translate(-1156.532236, -92.498400) " points="1156.53224 37.4984003 1204.16363 64.9984003 1204.16363 119.9984 1156.53224 147.4984 1108.90084 119.9984 1108.90084 64.9984003 "></polygon>
                    <polygon id="Polygon-1" transform="translate(1266.381485, 86.741445) rotate(-273.000000) translate(-1266.381485, -86.741445) " points="1266.38149 31.7414452 1314.01288 59.2414452 1314.01288 114.241445 1266.38149 141.741445 1218.75009 114.241445 1218.75009 59.2414452 "></polygon>
                    <polygon id="Polygon-1" transform="translate(1376.230734, 80.984490) rotate(-273.000000) translate(-1376.230734, -80.984490) " points="1376.23073 25.98449 1423.86213 53.48449 1423.86213 108.48449 1376.23073 135.98449 1328.59934 108.48449 1328.59934 53.48449 "></polygon>
                    <polygon id="Polygon-1" transform="translate(1486.079983, 75.227535) rotate(-273.000000) translate(-1486.079983, -75.227535) " points="1486.07998 20.2275348 1533.71138 47.7275348 1533.71138 102.727535 1486.07998 130.227535 1438.44859 102.727535 1438.44859 47.7275348 "></polygon>
                    <polygon id="Polygon-1" transform="translate(1595.929232, 69.470580) rotate(-273.000000) translate(-1595.929232, -69.470580) " points="1595.92923 14.4705796 1643.56063 41.9705796 1643.56063 96.9705796 1595.92923 124.47058 1548.29783 96.9705796 1548.29783 41.9705796 "></polygon>
                    <polygon id="Polygon-1" transform="translate(1705.778481, 63.713624) rotate(-273.000000) translate(-1705.778481, -63.713624) " points="1705.77848 8.71362442 1753.40988 36.2136244 1753.40988 91.2136244 1705.77848 118.713624 1658.14708 91.2136244 1658.14708 36.2136244 "></polygon>
                    <polygon id="Polygon-1" transform="translate(1815.627729, 57.956669) rotate(-273.000000) translate(-1815.627729, -57.956669) " points="1815.62773 2.95666923 1863.25913 30.4566692 1863.25913 85.4566692 1815.62773 112.956669 1767.99633 85.4566692 1767.99633 30.4566692 "></polygon>
                </g>
                <g id="Group-2" transform="translate(3.000000, 55.000000)">
                    <polygon id="Polygon-1" transform="translate(57.918226, 149.992577) rotate(-273.000000) translate(-57.918226, -149.992577) " points="57.9182258 94.9925766 105.549623 122.492577 105.549623 177.492577 57.9182258 204.992577 10.2868286 177.492577 10.2868286 122.492577 "></polygon>
                    <polygon id="Polygon-1" transform="translate(167.767475, 144.235621) rotate(-273.000000) translate(-167.767475, -144.235621) " points="167.767475 89.2356214 215.398872 116.735621 215.398872 171.735621 167.767475 199.235621 120.136077 171.735621 120.136077 116.735621 "></polygon>
                    <polygon id="Polygon-1" transform="translate(277.616723, 138.478666) rotate(-273.000000) translate(-277.616723, -138.478666) " points="277.616723 83.4786663 325.248121 110.978666 325.248121 165.978666 277.616723 193.478666 229.985326 165.978666 229.985326 110.978666 "></polygon>
                    <polygon id="Polygon-1" transform="translate(387.465972, 132.721711) rotate(-273.000000) translate(-387.465972, -132.721711) " points="387.465972 77.7217111 435.097369 105.221711 435.097369 160.221711 387.465972 187.721711 339.834575 160.221711 339.834575 105.221711 "></polygon>
                    <polygon id="Polygon-1" transform="translate(497.315221, 126.964756) rotate(-273.000000) translate(-497.315221, -126.964756) " points="497.315221 71.9647559 544.946618 99.4647559 544.946618 154.464756 497.315221 181.964756 449.683824 154.464756 449.683824 99.4647559 "></polygon>
                    <polygon id="Polygon-1" transform="translate(607.164470, 121.207801) rotate(-273.000000) translate(-607.164470, -121.207801) " points="607.16447 66.2078007 654.795867 93.7078007 654.795867 148.707801 607.16447 176.207801 559.533073 148.707801 559.533073 93.7078007 "></polygon>
                    <polygon id="Polygon-1" transform="translate(717.013719, 115.450846) rotate(-273.000000) translate(-717.013719, -115.450846) " points="717.013719 60.4508455 764.645116 87.9508455 764.645116 142.950846 717.013719 170.450846 669.382322 142.950846 669.382322 87.9508455 "></polygon>
                    <polygon id="Polygon-1" transform="translate(826.862968, 109.693890) rotate(-273.000000) translate(-826.862968, -109.693890) " points="826.862968 54.6938903 874.494365 82.1938903 874.494365 137.19389 826.862968 164.69389 779.23157 137.19389 779.23157 82.1938903 "></polygon>
                    <polygon id="Polygon-1" transform="translate(936.712216, 103.936935) rotate(-273.000000) translate(-936.712216, -103.936935) " points="936.712216 48.9369351 984.343614 76.4369351 984.343614 131.436935 936.712216 158.936935 889.080819 131.436935 889.080819 76.4369351 "></polygon>
                    <polygon id="Polygon-1" transform="translate(1046.561465, 98.179980) rotate(-273.000000) translate(-1046.561465, -98.179980) " points="1046.56147 43.1799799 1094.19286 70.6799799 1094.19286 125.67998 1046.56147 153.17998 998.930068 125.67998 998.930068 70.6799799 "></polygon>
                    <polygon id="Polygon-1" transform="translate(1156.410714, 92.423025) rotate(-273.000000) translate(-1156.410714, -92.423025) " points="1156.41071 37.4230248 1204.04211 64.9230248 1204.04211 119.923025 1156.41071 147.423025 1108.77932 119.923025 1108.77932 64.9230248 "></polygon>
                    <polygon id="Polygon-1" transform="translate(1266.259963, 86.666070) rotate(-273.000000) translate(-1266.259963, -86.666070) " points="1266.25996 31.6660696 1313.89136 59.1660696 1313.89136 114.16607 1266.25996 141.66607 1218.62857 114.16607 1218.62857 59.1660696 "></polygon>
                    <polygon id="Polygon-1" transform="translate(1376.109212, 80.909114) rotate(-273.000000) translate(-1376.109212, -80.909114) " points="1376.10921 25.9091144 1423.74061 53.4091144 1423.74061 108.409114 1376.10921 135.909114 1328.47781 108.409114 1328.47781 53.4091144 "></polygon>
                    <polygon id="Polygon-1" transform="translate(1485.958461, 75.152159) rotate(-273.000000) translate(-1485.958461, -75.152159) " points="1485.95846 20.1521592 1533.58986 47.6521592 1533.58986 102.652159 1485.95846 130.152159 1438.32706 102.652159 1438.32706 47.6521592 "></polygon>
                    <polygon id="Polygon-1" transform="translate(1595.807709, 69.395204) rotate(-273.000000) translate(-1595.807709, -69.395204) " points="1595.80771 14.395204 1643.43911 41.895204 1643.43911 96.895204 1595.80771 124.395204 1548.17631 96.895204 1548.17631 41.895204 "></polygon>
                    <polygon id="Polygon-1" transform="translate(1705.656958, 63.638249) rotate(-273.000000) translate(-1705.656958, -63.638249) " points="1705.65696 8.63824883 1753.28836 36.1382488 1753.28836 91.1382488 1705.65696 118.638249 1658.02556 91.1382488 1658.02556 36.1382488 "></polygon>
                    <polygon id="Polygon-1" transform="translate(1815.506207, 57.881294) rotate(-273.000000) translate(-1815.506207, -57.881294) " points="1815.50621 2.88129364 1863.1376 30.3812936 1863.1376 85.3812936 1815.50621 112.881294 1767.87481 85.3812936 1767.87481 30.3812936 "></polygon>
                </g>
                <g id="Group-3" transform="translate(5.000000, 110.000000)">
                    <polygon id="Polygon-1" transform="translate(58.796703, 149.917201) rotate(-273.000000) translate(-58.796703, -149.917201) " points="58.7967034 94.917201 106.428101 122.417201 106.428101 177.417201 58.7967034 204.917201 11.1653062 177.417201 11.1653062 122.417201 "></polygon>
                    <polygon id="Polygon-1" transform="translate(168.645952, 144.160246) rotate(-273.000000) translate(-168.645952, -144.160246) " points="168.645952 89.1602459 216.277349 116.660246 216.277349 171.660246 168.645952 199.160246 121.014555 171.660246 121.014555 116.660246 "></polygon>
                    <polygon id="Polygon-1" transform="translate(278.495201, 138.403291) rotate(-273.000000) translate(-278.495201, -138.403291) " points="278.495201 83.4032907 326.126598 110.903291 326.126598 165.903291 278.495201 193.403291 230.863804 165.903291 230.863804 110.903291 "></polygon>
                    <polygon id="Polygon-1" transform="translate(388.344450, 132.646335) rotate(-273.000000) translate(-388.344450, -132.646335) " points="388.34445 77.6463355 435.975847 105.146335 435.975847 160.146335 388.34445 187.646335 340.713053 160.146335 340.713053 105.146335 "></polygon>
                    <polygon id="Polygon-1" transform="translate(498.193699, 126.889380) rotate(-273.000000) translate(-498.193699, -126.889380) " points="498.193699 71.8893803 545.825096 99.3893803 545.825096 154.38938 498.193699 181.88938 450.562301 154.38938 450.562301 99.3893803 "></polygon>
                    <polygon id="Polygon-1" transform="translate(608.042948, 121.132425) rotate(-273.000000) translate(-608.042948, -121.132425) " points="608.042948 66.1324251 655.674345 93.6324251 655.674345 148.632425 608.042948 176.132425 560.41155 148.632425 560.41155 93.6324251 "></polygon>
                    <polygon id="Polygon-1" transform="translate(717.892196, 115.375470) rotate(-273.000000) translate(-717.892196, -115.375470) " points="717.892196 60.3754699 765.523594 87.8754699 765.523594 142.87547 717.892196 170.37547 670.260799 142.87547 670.260799 87.8754699 "></polygon>
                    <polygon id="Polygon-1" transform="translate(827.741445, 109.618515) rotate(-273.000000) translate(-827.741445, -109.618515) " points="827.741445 54.6185147 875.372842 82.1185147 875.372842 137.118515 827.741445 164.618515 780.110048 137.118515 780.110048 82.1185147 "></polygon>
                    <polygon id="Polygon-1" transform="translate(937.590694, 103.861560) rotate(-273.000000) translate(-937.590694, -103.861560) " points="937.590694 48.8615595 985.222091 76.3615595 985.222091 131.36156 937.590694 158.86156 889.959297 131.36156 889.959297 76.3615595 "></polygon>
                    <polygon id="Polygon-1" transform="translate(1047.439943, 98.104604) rotate(-273.000000) translate(-1047.439943, -98.104604) " points="1047.43994 43.1046044 1095.07134 70.6046044 1095.07134 125.604604 1047.43994 153.104604 999.808546 125.604604 999.808546 70.6046044 "></polygon>
                    <polygon id="Polygon-1" transform="translate(1157.289192, 92.347649) rotate(-273.000000) translate(-1157.289192, -92.347649) " points="1157.28919 37.3476492 1204.92059 64.8476492 1204.92059 119.847649 1157.28919 147.347649 1109.65779 119.847649 1109.65779 64.8476492 "></polygon>
                    <polygon id="Polygon-1" transform="translate(1267.138440, 86.590694) rotate(-273.000000) translate(-1267.138440, -86.590694) " points="1267.13844 31.590694 1314.76984 59.090694 1314.76984 114.090694 1267.13844 141.590694 1219.50704 114.090694 1219.50704 59.090694 "></polygon>
                    <polygon id="Polygon-1" transform="translate(1376.987689, 80.833739) rotate(-273.000000) translate(-1376.987689, -80.833739) " points="1376.98769 25.8337388 1424.61909 53.3337388 1424.61909 108.333739 1376.98769 135.833739 1329.35629 108.333739 1329.35629 53.3337388 "></polygon>
                    <polygon id="Polygon-1" transform="translate(1486.836938, 75.076784) rotate(-273.000000) translate(-1486.836938, -75.076784) " points="1486.83694 20.0767836 1534.46834 47.5767836 1534.46834 102.576784 1486.83694 130.076784 1439.20554 102.576784 1439.20554 47.5767836 "></polygon>
                    <polygon id="Polygon-1" transform="translate(1596.686187, 69.319828) rotate(-273.000000) translate(-1596.686187, -69.319828) " points="1596.68619 14.3198284 1644.31758 41.8198284 1644.31758 96.8198284 1596.68619 124.319828 1549.05479 96.8198284 1549.05479 41.8198284 "></polygon>
                    <polygon id="Polygon-1" transform="translate(1706.535436, 63.562873) rotate(-273.000000) translate(-1706.535436, -63.562873) " points="1706.53544 8.56287324 1754.16683 36.0628732 1754.16683 91.0628732 1706.53544 118.562873 1658.90404 91.0628732 1658.90404 36.0628732 "></polygon>
                    <polygon id="Polygon-1" transform="translate(1816.384685, 57.805918) rotate(-273.000000) translate(-1816.384685, -57.805918) " points="1816.38468 2.80591805 1864.01608 30.3059181 1864.01608 85.3059181 1816.38468 112.805918 1768.75329 85.3059181 1768.75329 30.3059181 "></polygon>
                </g>
                <g id="Group-4" transform="translate(8.000000, 164.000000)">
                    <polygon id="Polygon-1" transform="translate(58.675181, 150.841825) rotate(-273.000000) translate(-58.675181, -150.841825) " points="58.675181 95.8418255 106.306578 123.341825 106.306578 178.341825 58.675181 205.841825 11.0437838 178.341825 11.0437838 123.341825 "></polygon>
                    <polygon id="Polygon-1" transform="translate(168.524430, 145.084870) rotate(-273.000000) translate(-168.524430, -145.084870) " points="168.52443 90.0848703 216.155827 117.58487 216.155827 172.58487 168.52443 200.08487 120.893033 172.58487 120.893033 117.58487 "></polygon>
                    <polygon id="Polygon-1" transform="translate(278.373679, 139.327915) rotate(-273.000000) translate(-278.373679, -139.327915) " points="278.373679 84.3279151 326.005076 111.827915 326.005076 166.827915 278.373679 194.327915 230.742281 166.827915 230.742281 111.827915 "></polygon>
                    <polygon id="Polygon-1" transform="translate(388.222927, 133.570960) rotate(-273.000000) translate(-388.222927, -133.570960) " points="388.222927 78.5709599 435.854325 106.07096 435.854325 161.07096 388.222927 188.57096 340.59153 161.07096 340.59153 106.07096 "></polygon>
                    <polygon id="Polygon-1" transform="translate(498.072176, 127.814005) rotate(-273.000000) translate(-498.072176, -127.814005) " points="498.072176 72.8140047 545.703573 100.314005 545.703573 155.314005 498.072176 182.814005 450.440779 155.314005 450.440779 100.314005 "></polygon>
                    <polygon id="Polygon-1" transform="translate(607.921425, 122.057050) rotate(-273.000000) translate(-607.921425, -122.057050) " points="607.921425 67.0570495 655.552822 94.5570495 655.552822 149.55705 607.921425 177.05705 560.290028 149.55705 560.290028 94.5570495 "></polygon>
                    <polygon id="Polygon-1" transform="translate(717.770674, 116.300094) rotate(-273.000000) translate(-717.770674, -116.300094) " points="717.770674 61.3000943 765.402071 88.8000943 765.402071 143.800094 717.770674 171.300094 670.139277 143.800094 670.139277 88.8000943 "></polygon>
                    <polygon id="Polygon-1" transform="translate(827.619923, 110.543139) rotate(-273.000000) translate(-827.619923, -110.543139) " points="827.619923 55.5431391 875.25132 83.0431391 875.25132 138.043139 827.619923 165.543139 779.988526 138.043139 779.988526 83.0431391 "></polygon>
                    <polygon id="Polygon-1" transform="translate(937.469172, 104.786184) rotate(-273.000000) translate(-937.469172, -104.786184) " points="937.469172 49.786184 985.100569 77.286184 985.100569 132.286184 937.469172 159.786184 889.837774 132.286184 889.837774 77.286184 "></polygon>
                    <polygon id="Polygon-1" transform="translate(1047.318420, 99.029229) rotate(-273.000000) translate(-1047.318420, -99.029229) " points="1047.31842 44.0292288 1094.94982 71.5292288 1094.94982 126.529229 1047.31842 154.029229 999.687023 126.529229 999.687023 71.5292288 "></polygon>
                    <polygon id="Polygon-1" transform="translate(1157.167669, 93.272274) rotate(-273.000000) translate(-1157.167669, -93.272274) " points="1157.16767 38.2722736 1204.79907 65.7722736 1204.79907 120.772274 1157.16767 148.272274 1109.53627 120.772274 1109.53627 65.7722736 "></polygon>
                    <polygon id="Polygon-1" transform="translate(1267.016918, 87.515318) rotate(-273.000000) translate(-1267.016918, -87.515318) " points="1267.01692 32.5153184 1314.64832 60.0153184 1314.64832 115.015318 1267.01692 142.515318 1219.38552 115.015318 1219.38552 60.0153184 "></polygon>
                    <polygon id="Polygon-1" transform="translate(1376.866167, 81.758363) rotate(-273.000000) translate(-1376.866167, -81.758363) " points="1376.86617 26.7583632 1424.49756 54.2583632 1424.49756 109.258363 1376.86617 136.758363 1329.23477 109.258363 1329.23477 54.2583632 "></polygon>
                    <polygon id="Polygon-1" transform="translate(1486.715416, 76.001408) rotate(-273.000000) translate(-1486.715416, -76.001408) " points="1486.71542 21.001408 1534.34681 48.501408 1534.34681 103.501408 1486.71542 131.001408 1439.08402 103.501408 1439.08402 48.501408 "></polygon>
                    <polygon id="Polygon-1" transform="translate(1596.564665, 70.244453) rotate(-273.000000) translate(-1596.564665, -70.244453) " points="1596.56466 15.2444528 1644.19606 42.7444528 1644.19606 97.7444528 1596.56466 125.244453 1548.93327 97.7444528 1548.93327 42.7444528 "></polygon>
                    <polygon id="Polygon-1" transform="translate(1706.413913, 64.487498) rotate(-273.000000) translate(-1706.413913, -64.487498) " points="1706.41391 9.48749765 1754.04531 36.9874977 1754.04531 91.9874977 1706.41391 119.487498 1658.78252 91.9874977 1658.78252 36.9874977 "></polygon>
                    <polygon id="Polygon-1" transform="translate(1816.263162, 58.730542) rotate(-273.000000) translate(-1816.263162, -58.730542) " points="1816.26316 3.73054246 1863.89456 31.2305425 1863.89456 86.2305425 1816.26316 113.730542 1768.63176 86.2305425 1768.63176 31.2305425 "></polygon>
                </g>
                <g id="Group-5" transform="translate(11.000000, 219.000000)">
                    <polygon id="Polygon-1" transform="translate(58.553659, 150.766450) rotate(-273.000000) translate(-58.553659, -150.766450) " points="58.5536586 95.7664499 106.185056 123.26645 106.185056 178.26645 58.5536586 205.76645 10.9222614 178.26645 10.9222614 123.26645 "></polygon>
                    <polygon id="Polygon-1" transform="translate(168.402907, 145.009495) rotate(-273.000000) translate(-168.402907, -145.009495) " points="168.402907 90.0094947 216.034305 117.509495 216.034305 172.509495 168.402907 200.009495 120.77151 172.509495 120.77151 117.509495 "></polygon>
                    <polygon id="Polygon-1" transform="translate(278.252156, 139.252539) rotate(-273.000000) translate(-278.252156, -139.252539) " points="278.252156 84.2525395 325.883553 111.752539 325.883553 166.752539 278.252156 194.252539 230.620759 166.752539 230.620759 111.752539 "></polygon>
                    <polygon id="Polygon-1" transform="translate(388.101405, 133.495584) rotate(-273.000000) translate(-388.101405, -133.495584) " points="388.101405 78.4955843 435.732802 105.995584 435.732802 160.995584 388.101405 188.495584 340.470008 160.995584 340.470008 105.995584 "></polygon>
                    <polygon id="Polygon-1" transform="translate(497.950654, 127.738629) rotate(-273.000000) translate(-497.950654, -127.738629) " points="497.950654 72.7386291 545.582051 100.238629 545.582051 155.238629 497.950654 182.738629 450.319257 155.238629 450.319257 100.238629 "></polygon>
                    <polygon id="Polygon-1" transform="translate(607.799903, 121.981674) rotate(-273.000000) translate(-607.799903, -121.981674) " points="607.799903 66.9816739 655.4313 94.4816739 655.4313 149.481674 607.799903 176.981674 560.168505 149.481674 560.168505 94.4816739 "></polygon>
                    <polygon id="Polygon-1" transform="translate(717.649152, 116.224719) rotate(-273.000000) translate(-717.649152, -116.224719) " points="717.649152 61.2247187 765.280549 88.7247187 765.280549 143.724719 717.649152 171.224719 670.017754 143.724719 670.017754 88.7247187 "></polygon>
                    <polygon id="Polygon-1" transform="translate(827.498400, 110.467764) rotate(-273.000000) translate(-827.498400, -110.467764) " points="827.4984 55.4677636 875.129798 82.9677636 875.129798 137.967764 827.4984 165.467764 779.867003 137.967764 779.867003 82.9677636 "></polygon>
                    <polygon id="Polygon-1" transform="translate(937.347649, 104.710808) rotate(-273.000000) translate(-937.347649, -104.710808) " points="937.347649 49.7108084 984.979046 77.2108084 984.979046 132.210808 937.347649 159.710808 889.716252 132.210808 889.716252 77.2108084 "></polygon>
                    <polygon id="Polygon-1" transform="translate(1047.196898, 98.953853) rotate(-273.000000) translate(-1047.196898, -98.953853) " points="1047.1969 43.9538532 1094.8283 71.4538532 1094.8283 126.453853 1047.1969 153.953853 999.565501 126.453853 999.565501 71.4538532 "></polygon>
                    <polygon id="Polygon-1" transform="translate(1157.046147, 93.196898) rotate(-273.000000) translate(-1157.046147, -93.196898) " points="1157.04615 38.196898 1204.67754 65.696898 1204.67754 120.696898 1157.04615 148.196898 1109.41475 120.696898 1109.41475 65.696898 "></polygon>
                    <polygon id="Polygon-1" transform="translate(1266.895396, 87.439943) rotate(-273.000000) translate(-1266.895396, -87.439943) " points="1266.8954 32.4399428 1314.52679 59.9399428 1314.52679 114.939943 1266.8954 142.439943 1219.264 114.939943 1219.264 59.9399428 "></polygon>
                    <polygon id="Polygon-1" transform="translate(1376.744644, 81.682988) rotate(-273.000000) translate(-1376.744644, -81.682988) " points="1376.74464 26.6829876 1424.37604 54.1829876 1424.37604 109.182988 1376.74464 136.682988 1329.11325 109.182988 1329.11325 54.1829876 "></polygon>
                    <polygon id="Polygon-1" transform="translate(1486.593893, 75.926032) rotate(-273.000000) translate(-1486.593893, -75.926032) " points="1486.59389 20.9260324 1534.22529 48.4260324 1534.22529 103.426032 1486.59389 130.926032 1438.9625 103.426032 1438.9625 48.4260324 "></polygon>
                    <polygon id="Polygon-1" transform="translate(1596.443142, 70.169077) rotate(-273.000000) translate(-1596.443142, -70.169077) " points="1596.44314 15.1690772 1644.07454 42.6690772 1644.07454 97.6690772 1596.44314 125.169077 1548.81174 97.6690772 1548.81174 42.6690772 "></polygon>
                    <polygon id="Polygon-1" transform="translate(1706.292391, 64.412122) rotate(-273.000000) translate(-1706.292391, -64.412122) " points="1706.29239 9.41212206 1753.92379 36.9121221 1753.92379 91.9121221 1706.29239 119.412122 1658.66099 91.9121221 1658.66099 36.9121221 "></polygon>
                    <polygon id="Polygon-1" transform="translate(1816.141640, 58.655167) rotate(-273.000000) translate(-1816.141640, -58.655167) " points="1816.14164 3.65516687 1863.77304 31.1551669 1863.77304 86.1551669 1816.14164 113.655167 1768.51024 86.1551669 1768.51024 31.1551669 "></polygon>
                </g>
                <g id="Group-6" transform="translate(14.000000, 274.000000)">
                    <polygon id="Polygon-1" transform="translate(58.432136, 150.691074) rotate(-273.000000) translate(-58.432136, -150.691074) " points="58.4321362 95.6910743 106.063533 123.191074 106.063533 178.191074 58.4321362 205.691074 10.800739 178.191074 10.800739 123.191074 "></polygon>
                    <polygon id="Polygon-1" transform="translate(168.281385, 144.934119) rotate(-273.000000) translate(-168.281385, -144.934119) " points="168.281385 89.9341191 215.912782 117.434119 215.912782 172.434119 168.281385 199.934119 120.649988 172.434119 120.649988 117.434119 "></polygon>
                    <polygon id="Polygon-1" transform="translate(278.130634, 139.177164) rotate(-273.000000) translate(-278.130634, -139.177164) " points="278.130634 84.1771639 325.762031 111.677164 325.762031 166.677164 278.130634 194.177164 230.499237 166.677164 230.499237 111.677164 "></polygon>
                    <polygon id="Polygon-1" transform="translate(387.979883, 133.420209) rotate(-273.000000) translate(-387.979883, -133.420209) " points="387.979883 78.4202087 435.61128 105.920209 435.61128 160.920209 387.979883 188.420209 340.348485 160.920209 340.348485 105.920209 "></polygon>
                    <polygon id="Polygon-1" transform="translate(497.829131, 127.663254) rotate(-273.000000) translate(-497.829131, -127.663254) " points="497.829131 72.6632535 545.460529 100.163254 545.460529 155.163254 497.829131 182.663254 450.197734 155.163254 450.197734 100.163254 "></polygon>
                    <polygon id="Polygon-1" transform="translate(607.678380, 121.906298) rotate(-273.000000) translate(-607.678380, -121.906298) " points="607.67838 66.9062983 655.309778 94.4062983 655.309778 149.406298 607.67838 176.906298 560.046983 149.406298 560.046983 94.4062983 "></polygon>
                    <polygon id="Polygon-1" transform="translate(717.527629, 116.149343) rotate(-273.000000) translate(-717.527629, -116.149343) " points="717.527629 61.1493432 765.159026 88.6493432 765.159026 143.649343 717.527629 171.149343 669.896232 143.649343 669.896232 88.6493432 "></polygon>
                    <polygon id="Polygon-1" transform="translate(827.376878, 110.392388) rotate(-273.000000) translate(-827.376878, -110.392388) " points="827.376878 55.392388 875.008275 82.892388 875.008275 137.892388 827.376878 165.392388 779.745481 137.892388 779.745481 82.892388 "></polygon>
                    <polygon id="Polygon-1" transform="translate(937.226127, 104.635433) rotate(-273.000000) translate(-937.226127, -104.635433) " points="937.226127 49.6354328 984.857524 77.1354328 984.857524 132.135433 937.226127 159.635433 889.59473 132.135433 889.59473 77.1354328 "></polygon>
                    <polygon id="Polygon-1" transform="translate(1047.075376, 98.878478) rotate(-273.000000) translate(-1047.075376, -98.878478) " points="1047.07538 43.8784776 1094.70677 71.3784776 1094.70677 126.378478 1047.07538 153.878478 999.443978 126.378478 999.443978 71.3784776 "></polygon>
                    <polygon id="Polygon-1" transform="translate(1156.924624, 93.121522) rotate(-273.000000) translate(-1156.924624, -93.121522) " points="1156.92462 38.1215224 1204.55602 65.6215224 1204.55602 120.621522 1156.92462 148.121522 1109.29323 120.621522 1109.29323 65.6215224 "></polygon>
                    <polygon id="Polygon-1" transform="translate(1266.773873, 87.364567) rotate(-273.000000) translate(-1266.773873, -87.364567) " points="1266.77387 32.3645672 1314.40527 59.8645672 1314.40527 114.864567 1266.77387 142.364567 1219.14248 114.864567 1219.14248 59.8645672 "></polygon>
                    <polygon id="Polygon-1" transform="translate(1376.623122, 81.607612) rotate(-273.000000) translate(-1376.623122, -81.607612) " points="1376.62312 26.607612 1424.25452 54.107612 1424.25452 109.107612 1376.62312 136.607612 1328.99172 109.107612 1328.99172 54.107612 "></polygon>
                    <polygon id="Polygon-1" transform="translate(1486.472371, 75.850657) rotate(-273.000000) translate(-1486.472371, -75.850657) " points="1486.47237 20.8506568 1534.10377 48.3506568 1534.10377 103.350657 1486.47237 130.850657 1438.84097 103.350657 1438.84097 48.3506568 "></polygon>
                    <polygon id="Polygon-1" transform="translate(1596.321620, 70.093702) rotate(-273.000000) translate(-1596.321620, -70.093702) " points="1596.32162 15.0937017 1643.95302 42.5937017 1643.95302 97.5937017 1596.32162 125.093702 1548.69022 97.5937017 1548.69022 42.5937017 "></polygon>
                    <polygon id="Polygon-1" transform="translate(1706.170869, 64.336746) rotate(-273.000000) translate(-1706.170869, -64.336746) " points="1706.17087 9.33674647 1753.80227 36.8367465 1753.80227 91.8367465 1706.17087 119.336746 1658.53947 91.8367465 1658.53947 36.8367465 "></polygon>
                    <polygon id="Polygon-1" transform="translate(1816.020117, 58.579791) rotate(-273.000000) translate(-1816.020117, -58.579791) " points="1816.02012 3.57979129 1863.65151 31.0797913 1863.65151 86.0797913 1816.02012 113.579791 1768.38872 86.0797913 1768.38872 31.0797913 "></polygon>
                </g>
            </g>
        </g>
    </g>
</svg>